HIERARCHY
ROOT Hips
{
	OFFSET -14.64140 90.27770 -84.91600
	CHANNELS 6 Xposition Yposition Zposition Zrotation Xrotation Yrotation
	JOINT Spine
	{
		OFFSET 0.00000 13.20850 -1.60436
		CHANNELS 3 Zrotation Xrotation Yrotation
		JOINT Spine1
		{
			OFFSET 0.00000 8.61716 0.00000
			CHANNELS 3 Zrotation Xrotation Yrotation
			JOINT Spine2
			{
				OFFSET 0.00000 8.61717 0.00000
				CHANNELS 3 Zrotation Xrotation Yrotation
				JOINT Spine3
				{
					OFFSET 0.00000 8.61717 0.00000
					CHANNELS 3 Zrotation Xrotation Yrotation
					JOINT Neck
					{
						OFFSET 0.00000 11.07920 1.10792
						CHANNELS 3 Zrotation Xrotation Yrotation
						JOINT Neck1
						{
							OFFSET 0.00000 7.08032 0.00000
							CHANNELS 3 Zrotation Xrotation Yrotation
							JOINT Head
							{
								OFFSET 0.00000 7.08031 0.00000
								CHANNELS 3 Zrotation Xrotation Yrotation
								End site
								{
									OFFSET 0.00000 0.00000 0.00000
								}
							}
						}
					}
					JOINT RightShoulder
					{
						OFFSET -0.01000 7.91373 5.19711
						CHANNELS 3 Zrotation Xrotation Yrotation
						JOINT RightArm
						{
							OFFSET -18.41580 0.00000 0.00000
							CHANNELS 3 Zrotation Xrotation Yrotation
							JOINT RightForeArm
							{
								OFFSET -29.11090 0.00000 0.00000
								CHANNELS 3 Zrotation Xrotation Yrotation
								JOINT RightHand
								{
									OFFSET -24.65040 0.00000 0.00000
									CHANNELS 3 Zrotation Xrotation Yrotation
									JOINT RightHandThumb1
									{
										OFFSET -5.35114 -0.85590 3.97906
										CHANNELS 3 Zrotation Xrotation Yrotation
										JOINT RightHandThumb2
										{
											OFFSET -4.52789 0.00000 0.00000
											CHANNELS 3 Zrotation Xrotation Yrotation
											JOINT RightHandThumb3
											{
												OFFSET -2.46976 0.00000 0.00000
												CHANNELS 3 Zrotation Xrotation Yrotation
												End site
												{
													OFFSET 0.00000 0.00000 0.00000
												}
											}
										}
									}
									JOINT RightHandIndex1
									{
										OFFSET -14.26970 0.00000 2.88139
										CHANNELS 3 Zrotation Xrotation Yrotation
										JOINT RightHandIndex2
										{
											OFFSET -5.48836 0.00000 0.00000
											CHANNELS 3 Zrotation Xrotation Yrotation
											JOINT RightHandIndex3
											{
												OFFSET -3.01859 0.00000 0.00000
												CHANNELS 3 Zrotation Xrotation Yrotation
												End site
												{
													OFFSET 0.00000 0.00000 0.00000
												}
											}
										}
									}
									JOINT RightHandMiddle1
									{
										OFFSET -14.26970 0.00000 -0.09147
										CHANNELS 3 Zrotation Xrotation Yrotation
										JOINT RightHandMiddle2
										{
											OFFSET -6.17441 0.00000 0.00000
											CHANNELS 3 Zrotation Xrotation Yrotation
											JOINT RightHandMiddle3
											{
												OFFSET -3.56743 0.00000 0.00000
												CHANNELS 3 Zrotation Xrotation Yrotation
												End site
												{
													OFFSET 0.00000 0.00000 0.00000
												}
											}
										}
									}
									JOINT RightHandRing1
									{
										OFFSET -12.69180 0.00000 -3.06433
										CHANNELS 3 Zrotation Xrotation Yrotation
										JOINT RightHandRing2
										{
											OFFSET -5.62556 0.00000 0.00000
											CHANNELS 3 Zrotation Xrotation Yrotation
											JOINT RightHandRing3
											{
												OFFSET -3.56744 0.00000 0.00000
												CHANNELS 3 Zrotation Xrotation Yrotation
												End site
												{
													OFFSET 0.00000 0.00000 0.00000
												}
											}
										}
									}
									JOINT RightHandPinky1
									{
										OFFSET -11.11390 0.00000 -6.03719
										CHANNELS 3 Zrotation Xrotation Yrotation
										JOINT RightHandPinky2
										{
											OFFSET -4.52789 0.00000 0.00000
											CHANNELS 3 Zrotation Xrotation Yrotation
											JOINT RightHandPinky3
											{
												OFFSET -2.46976 0.00000 0.00000
												CHANNELS 3 Zrotation Xrotation Yrotation
												End site
												{
													OFFSET 0.00000 0.00000 0.00000
												}
											}
										}
									}
								}
							}
						}
					}
					JOINT LeftShoulder
					{
						OFFSET 0.01000 7.91373 5.19711
						CHANNELS 3 Zrotation Xrotation Yrotation
						JOINT LeftArm
						{
							OFFSET 18.41580 0.00000 0.00000
							CHANNELS 3 Zrotation Xrotation Yrotation
							JOINT LeftForeArm
							{
								OFFSET 29.11090 0.00000 0.00000
								CHANNELS 3 Zrotation Xrotation Yrotation
								JOINT LeftHand
								{
									OFFSET 24.65040 0.00000 0.00000
									CHANNELS 3 Zrotation Xrotation Yrotation
									JOINT LeftHandThumb1
									{
										OFFSET 5.35114 -0.85590 3.97906
										CHANNELS 3 Zrotation Xrotation Yrotation
										JOINT LeftHandThumb2
										{
											OFFSET 4.52789 0.00000 0.00000
											CHANNELS 3 Zrotation Xrotation Yrotation
											JOINT LeftHandThumb3
											{
												OFFSET 2.46977 0.00000 0.00000
												CHANNELS 3 Zrotation Xrotation Yrotation
												End site
												{
													OFFSET 0.00000 0.00000 0.00000
												}
											}
										}
									}
									JOINT LeftHandIndex1
									{
										OFFSET 14.26970 0.00000 2.88139
										CHANNELS 3 Zrotation Xrotation Yrotation
										JOINT LeftHandIndex2
										{
											OFFSET 5.48836 0.00000 0.00000
											CHANNELS 3 Zrotation Xrotation Yrotation
											JOINT LeftHandIndex3
											{
												OFFSET 3.01859 0.00000 0.00000
												CHANNELS 3 Zrotation Xrotation Yrotation
												End site
												{
													OFFSET 0.00000 0.00000 0.00000
												}
											}
										}
									}
									JOINT LeftHandMiddle1
									{
										OFFSET 14.26970 0.00000 -0.09147
										CHANNELS 3 Zrotation Xrotation Yrotation
										JOINT LeftHandMiddle2
										{
											OFFSET 6.17440 0.00000 0.00000
											CHANNELS 3 Zrotation Xrotation Yrotation
											JOINT LeftHandMiddle3
											{
												OFFSET 3.56744 0.00000 0.00000
												CHANNELS 3 Zrotation Xrotation Yrotation
												End site
												{
													OFFSET 0.00000 0.00000 0.00000
												}
											}
										}
									}
									JOINT LeftHandRing1
									{
										OFFSET 12.69180 0.00000 -3.06433
										CHANNELS 3 Zrotation Xrotation Yrotation
										JOINT LeftHandRing2
										{
											OFFSET 5.62556 0.00000 0.00000
											CHANNELS 3 Zrotation Xrotation Yrotation
											JOINT LeftHandRing3
											{
												OFFSET 3.56744 0.00000 0.00000
												CHANNELS 3 Zrotation Xrotation Yrotation
												End site
												{
													OFFSET 0.00000 0.00000 0.00000
												}
											}
										}
									}
									JOINT LeftHandPinky1
									{
										OFFSET 11.11390 0.00000 -6.03719
										CHANNELS 3 Zrotation Xrotation Yrotation
										JOINT LeftHandPinky2
										{
											OFFSET 4.52789 0.00000 0.00000
											CHANNELS 3 Zrotation Xrotation Yrotation
											JOINT LeftHandPinky3
											{
												OFFSET 2.46976 0.00000 0.00000
												CHANNELS 3 Zrotation Xrotation Yrotation
												End site
												{
													OFFSET 0.00000 0.00000 0.00000
												}
											}
										}
									}
								}
							}
						}
					}
					JOINT pCube4
					{
						OFFSET 0.00000 10.91090 1.10792
						CHANNELS 3 Zrotation Xrotation Yrotation
						End site
						{
							OFFSET 0.00000 0.00000 0.00000
						}
					}
				}
			}
		}
	}
	JOINT RightUpLeg
	{
		OFFSET -9.98441 0.00000 0.00000
		CHANNELS 3 Zrotation Xrotation Yrotation
		JOINT RightLeg
		{
			OFFSET 0.00000 -42.11790 0.00000
			CHANNELS 3 Zrotation Xrotation Yrotation
			JOINT RightFoot
			{
				OFFSET 0.00000 -45.00020 -0.00001
				CHANNELS 3 Zrotation Xrotation Yrotation
				JOINT RightForeFoot
				{
					OFFSET 0.00000 -3.74820 0.00000
					CHANNELS 3 Zrotation Xrotation Yrotation
					JOINT RightToeBase
					{
						OFFSET 0.00000 0.06325 14.43120
						CHANNELS 3 Zrotation Xrotation Yrotation
						End site
						{
							OFFSET 0.00000 0.00000 0.00000
						}
					}
				}
			}
		}
	}
	JOINT LeftUpLeg
	{
		OFFSET 9.98441 0.00000 0.00000
		CHANNELS 3 Zrotation Xrotation Yrotation
		JOINT LeftLeg
		{
			OFFSET 0.00000 -42.11800 0.00000
			CHANNELS 3 Zrotation Xrotation Yrotation
			JOINT LeftFoot
			{
				OFFSET 0.00000 -45.00070 0.00000
				CHANNELS 3 Zrotation Xrotation Yrotation
				JOINT LeftForeFoot
				{
					OFFSET 0.00000 -3.74824 0.00000
					CHANNELS 3 Zrotation Xrotation Yrotation
					JOINT LeftToeBase
					{
						OFFSET 0.00000 0.06325 14.43110
						CHANNELS 3 Zrotation Xrotation Yrotation
						End site
						{
							OFFSET 0.00000 0.00000 0.00000
						}
					}
				}
			}
		}
	}
}
MOTION
Frames: 4
Frame Time: 0.050000
-0.012852938550045705 0.02615792513420867 -0.0057826962117305866 -0.025496553104829435 0.031528196462565466 0.006179335883895323 5.150266918447389 3.370407623927111 -2.223619400999719 -0.8298525552403355 3.3957467642157257 0.39116413756324153 -0.5545426901960333 -0.8288901089589286 1.0323932534395426 -0.7908464454454703 -0.504250246614423 -0.1913516963240048 -0.23629005538495493 11.160219029738391 -0.5417502134392648 0.03727824879779977 -1.0670579334416501 -1.3142270560088176 0.26805536591414225 -17.80001393034365 -0.12795984583299672 -10.959764418812219 3.8994752462549367 -17.34887275829931 81.81901424425872 -4.577259271513405 12.977494992499544 31.29625071905056 1.7319040950415612 95.12659356359008 9.26793042576381 -0.4594417001667855 -3.972476338115937 4.496864655423845 -0.16821735903350815 -1.6289037104810453 -0.03961994952385687 0.031121543192698817 -56.20789619631012 0.004087624377190518 -0.014827985715955314 -56.22901667582048 -38.791458944822104 0.00613431197045977 -0.03589784021121863 -0.029834385452712813 0.016489801181599848 0.02017718671241092 -0.036807160848196255 -0.020344655341755353 -0.04774544964536727 -36.6523253255537 -0.015609874363558438 -0.009498615781298732 -0.008670832573100015 -0.025723382769160516 0.0019522622202934354 -0.031941621108102 0.023206960133895546 0.03980454008960406 -19.71048024514455 -0.023589771900289793 0.024485174282393704 0.044146990026191615 0.01873282622589431 -0.03795081383432117 0.00046738523300178324 0.03940440274363889 0.03286700189540535 24.06795539845323 0.02249555071225687 0.03547246720861125 28.85562172996895 -0.014030435656973043 0.008906043847384084 28.89670498676125 0.04383522481211913 -0.00791245774817071 10.075342792788703 2.482857286928792 14.249312680139063 -77.21758999978543 18.398010098571692 -13.027605025292825 -9.36557473418154 12.243478649071728 -56.37622385680286 -19.063628450497074 -2.4080359645956952 3.1906399439482995 -0.49072545151374236 0.03948761848643588 -8.154588229382489 -0.00040365046201547587 0.029850080950902656 44.545767782777006 0.045369308883382996 -0.014260169250207809 44.61559639762986 12.460688265354898 0.005894807159320418 -0.017547653464202503 -0.007780165095788267 0.02739587892816168 -0.04938005897730718 0.02238601184863957 -0.0328451888124066 0.03360749887694069 11.10047522764409 -0.00862385554176673 -0.005395834849645768 0.0485706173583477 0.01546651685782902 -0.0011715107718540349 -0.03773046301630637 0.03049123355335174 -0.0016857084018978845 4.72429848132081 -0.0165382135184124 0.006717572989568183 0.028969172591031888 0.024953469389452542 0.012386933078721145 -0.031254662464465864 -0.03451141256486465 0.0024479671917139213 -5.613053618687209 0.007266891677651978 0.046796241899501295 -6.683124770131613 -0.0389062832995366 0.004694883825108861 -6.705873333569873 -0.03978487940183443 -0.02090192897683814 -0.012491929330777557 0.01991264530753357 -0.03323087558428139 8.04126203406684 3.4908416204251025 -19.20612178566864 -0.001329032544506614 10.405837581781412 -0.000793318021604858 -5.61114592994773 -15.631994795278578 3.24070259863325 -0.008280844128191694 -0.01904073756910363 -0.035636142621830555 -0.01654304666086804 4.74750092299417 -0.0023434891867101524 12.454285505214726 -8.25331609236773 6.884951366722903 0.014356507928329432 46.35368749747234 0.023327116326237848 -4.287955327542301 -14.785559456631226 -3.8359194925272226 -0.010856609192901373 0.01711771891134236 -0.039092478793886117 -0.04842205723271907 -10.778079470332154 0.044094016386493684 
0.009351867022417469 -0.037095227051553104 -0.004120455664347228 -0.03983654106247313 -0.03179433989409481 -0.025006505071270474 5.227935993439946 3.3253628994749698 -2.26503050987302 -0.8449202818512239 3.4157962379635034 0.3885169967397739 -0.5518503403405952 -0.8925897324871247 1.2402519102496963 -0.721705373286765 -0.5288001476213889 -0.1372988157845743 -0.17805648538258967 11.201034794105743 -0.8617986286449323 -0.0008972405487204455 -1.0640573525564054 -1.993856426290709 0.4130555941042006 -17.854079416923614 -0.2023397646111745 -10.918406147876814 3.902207449136129 -17.45092520011082 81.22894255334703 -4.006317815279509 13.215902038708155 30.740403004877646 2.2789449122290644 94.97752756537429 9.607210565924728 -0.43510717320999776 -4.031609686149651 4.556819271771077 -0.08979834957163069 -1.5697029324022667 -0.013831828052033448 -0.008244123399610056 -56.22395571220921 0.00637733462428809 -0.03329653114629906 -56.231332668279244 -38.74931707289504 -0.042307639266902966 0.0005897019534226445 0.01749279334871684 -0.03979884235629027 -0.0032184348772090567 0.015728039327649695 -0.01621528610705506 -0.006409506131809297 -36.705887464873314 -0.03597432832984529 0.0449918607800525 0.04013794452937809 0.00010632275649909239 0.048006697803010284 -0.0038150820263654116 -0.009626161848061915 0.044593652959735455 -19.713929459760845 4.00515565396392e-06 0.030381417334672537 0.015010917811002123 -0.0129052877466873 -0.017180257164216856 -0.013582675630369289 0.00023321379216500367 -0.003859227946927473 24.083588866724018 0.007960634925380915 -0.03421022346816733 28.84276801682704 0.0300232509092334 -0.039923198847006916 28.910134510052185 -0.018995282795398274 -0.023323220741989274 9.729589574803738 2.3266262907766557 14.349227033459671 -77.33940725008462 18.414026436901132 -11.61678215602021 -7.210559437944806 11.853096737209052 -53.13130100999655 -19.224277299514736 -1.9862290372367704 3.015289158105052 -0.4869665026540872 0.0755202774502346 -8.156258128149009 -0.04816120160837323 0.00022229405150897338 44.54981997202799 -0.03514510590652273 0.03296477511144354 44.55766801572399 12.49288860993786 -0.04256001665727874 0.026124379741820827 0.04840001644201533 -0.025437038407161112 -0.0010270555980348413 0.04915819616336861 0.016378729980175463 -0.0407709396684773 11.120782681608661 -0.005339990223168853 -0.006206028241348913 -0.028274750780267883 -0.04213900298529029 0.005929450523462951 0.01885879195346651 -0.0011012450500642375 -0.028154822151574374 4.759781928495278 -0.007282547816354698 -0.029007007133149017 0.010430623301880406 -0.006247822890082902 -0.02214085610497845 0.034343677598998645 0.002651547129669699 -0.04878032367324013 -5.569303422335249 0.02285362511157387 -0.019766746277392527 -6.676951067290047 0.01494006915220429 0.004363109895566787 -6.674360247165727 -0.03423070816471921 0.025218785707852003 0.03168481842424023 0.00407481319180514 -0.046507499599681784 8.077672572195187 3.495740580296045 -19.189238988461714 0.044965914117059115 10.402510759397211 0.004651626637006896 -5.649459285681441 -15.651374348213103 3.1766215927146235 -0.03770470322124125 -0.004795684888095783 -0.01339592474141977 0.03460824320586739 4.680616509363405 0.027797989145516077 12.465652495309374 -8.247026101986624 6.8840156966190795 0.02871153556313878 46.390053619679975 0.04192161472334442 -4.335703240386931 -14.780911685428894 -3.8420862889259175 -0.0288092117003897 0.011203320114226856 0.04381929592274364 0.02448408298174019 -10.737030451116313 -0.02561295403310801 
0.03563618372763407 -0.048385306731324726 -0.03824328796056442 -0.015718860326230086 -0.04082082912800759 0.029045513529437836 5.309016219161871 3.2314412762256923 -2.2927844639898396 -0.8278708730444373 3.4711727924131615 0.4520285854062687 -0.5995114073792074 -0.8534471528676139 1.3137056015229114 -0.7338509194682065 -0.5053370250738748 -0.21311725490816336 -0.10303201992238928 11.123003720414744 -1.072515702119503 0.06610849348312889 -1.1413687131393804 -2.748662623030588 0.5159317703093804 -17.936914448096037 -0.2801998392645228 -10.79495499548397 3.8505502302079107 -17.50166948974846 80.8958766902383 -3.567975665872243 13.048854181130793 30.217402774766644 2.8090767559831717 94.73518585166954 10.063921790396488 -0.4369274217469008 -4.114599867559051 4.5003298070573345 -0.12517830120510268 -1.5720186811350527 0.04433736489745172 0.03665142053927171 -56.246010467416966 0.025929331336633908 0.0015203889090929128 -56.244448672957795 -38.8128409846703 -0.01125895662874717 -0.015413990476899847 0.021292511395615294 -0.04391824509529917 -0.04297231230828653 0.04182604795000935 -0.039203395050989714 -0.0421837969627428 -36.71837384853467 0.04885657046191505 0.03938310705867965 0.04515262155806514 -0.038639782215116644 -0.023886007310226186 0.029290708358455146 -0.022369877752001718 0.028141645207103164 -19.767673132329257 0.027140245823466358 -0.042177477479181984 0.004983455001586845 -0.009409810852567133 0.022973632304248013 0.009213289673880075 0.03810287195673458 0.025927636967215437 24.029930148397256 0.043500505115273584 -0.02980802377269916 28.85528381208217 0.004182042669822187 0.019441641254462984 28.913056805191577 -0.02343685208777543 -0.013867402372384253 9.37787178907292 2.3098823950534526 14.468124332095817 -77.44731417216572 18.38071121026552 -10.558856710274654 -5.816736037420321 11.579211478855857 -51.11741713267266 -19.427925926113236 -1.6769084985365046 2.8798349986112335 -0.44156297143429807 0.038418091631130837 -8.114555049736714 0.005297869685968559 -0.022818186424910767 44.569553099658656 -0.013291627995264555 -0.034603320372427034 44.519471647742606 12.482401125993865 0.021050314094966167 -0.00749603595156438 0.021899599435118246 -0.014893794161128217 -0.0018891453577121909 -0.02876298648258691 -0.030444249676747786 0.00578115604300701 11.085335107394737 -0.04064475069431411 0.04536973115634354 0.04114527230954214 -0.00335087412353616 0.030029428724218002 -0.02070236198575631 -0.019850761834638422 0.028260413557737153 4.764687707273329 0.023088399029330072 0.035556903532597064 0.028764666939021428 -0.049320082083361055 -0.004330053356096571 0.01553649705254119 -0.02293275306488112 0.02917685080033317 -5.592569962917036 0.0059069747851115 0.041056424508260886 -6.722920095232604 -0.023675203589677615 0.007825633661254845 -6.71718460298309 -0.019920397167435985 -0.04341656936891997 0.013464807109707117 -0.0480723136743274 -0.010700419223286734 8.025729961271146 3.5303591509355168 -19.24764409254208 -0.0323219294475808 10.374585867828097 0.009244830947514325 -5.581709342278486 -15.667274760801588 3.1784342649535104 -0.013541671142986812 0.028496585033315987 -0.01413898630514675 0.009414299520078823 4.687544786487816 -0.027720931886764496 12.444282503029171 -8.248241494855733 6.8722236578679405 0.018383758201180146 46.3454017192061 -0.01184309036363658 -4.359884886688717 -14.762069512050328 -3.8166058610285827 -0.03485567852265262 0.0004616301253287658 0.013211799895466727 0.01083907862407121 -10.702554353619643 -0.001579614418352746 
-0.0020530872363542056 -0.0011351404563186332 0.020389769818353318 -0.011422458220693599 -0.022911743286403816 -0.03640256104092428 5.230013984906775 3.129805759607628 -2.312626237960541 -0.7575130356114631 3.384835546698534 0.452429370736964 -0.6062162572875358 -0.830699391227566 1.3469949192568313 -0.6829606460089983 -0.5780707021528814 -0.13965113375692811 0.08903747128143794 11.092545600270912 -1.3789444511346012 0.06848963177633409 -1.2134397490488735 -3.3607587659483564 0.5922414916670253 -18.05484123188586 -0.32225010334089793 -10.732226735464618 3.827682291710611 -17.595971274438302 80.59093407823313 -3.1743772930243828 12.62220969139748 29.31633035358764 3.333281439584486 95.13105536203892 10.498094453678117 -0.5014351293291798 -4.298145113805624 4.4836557822841545 -0.1008495546560405 -1.6080552177105947 -0.04694549895890037 0.0458707851958014 -56.22331126081948 0.0199437706281237 -0.049584088591268755 -56.21104630139398 -38.75183394329512 -0.035970344262909244 -0.031254514559972885 -0.02797950201276495 0.04792833315483491 0.017789557010123785 -0.008766865205390575 -0.04870008368813555 -0.013859227985126309 -36.67805300275066 -0.04970942055203942 0.03949807178767984 -0.024564129301086493 0.025834738798371976 0.03422816366327287 -0.026106669595856676 -0.0382388376966078 0.030233576531312055 -19.736791708795327 0.033386370359446194 -0.00508545229088104 -0.03270036544377337 -0.018783365182642137 -0.013748084143410944 -0.039890327156796794 -0.02106318490113756 0.032349428331160154 24.05683383780282 -0.047775765327252584 0.027722935735162577 28.86781963171671 0.002465194189748802 0.017252801606991837 28.823917624411486 -0.02546325954047763 -0.021465022388607122 9.131203999138968 2.2813291542465732 14.498493412135424 -77.51312811467228 18.424557588712656 -9.577001879548716 -4.940075403605015 11.35308540512336 -49.898902671466196 -19.72269628559839 -1.6407410050755533 2.8181319071818574 -0.46803774165984624 0.03814843137492281 -8.157788791295204 0.017868829003178203 0.020010821183877394 44.60334091787437 0.029709326347414702 0.010720495323461664 44.52333647388748 12.437455023780815 0.03913321925981713 0.004424964328786857 0.027186848683453745 0.010468678726951078 -0.004954735687175969 0.008158415899100284 -0.014158969500898717 -0.021487015274977095 11.149787780421699 -0.022971946481242397 -0.024913785904299143 0.03411796040047985 -0.0030693719668687435 0.04008446075620232 -0.01768482507091909 0.010649741322800584 0.01505652823583893 4.794934193135541 -0.026408192802183927 -0.04555000053956793 -0.03442737833664526 0.02698615664764112 -0.023747798537124304 -0.020150095145637717 -0.01980432927120338 -0.012618590856287129 -5.560354563444628 -0.03053738014668339 -0.04148962734305989 -6.751281025617746 -0.0331964192783675 0.015626993590250906 -6.724171982637503 0.014557598254216526 -0.023449035350881012 0.014089032239745542 -0.015696412874411737 0.015241811505070665 8.04998889263103 3.4825718600528823 -19.207559786634256 0.004997393473167387 10.374934115048353 0.05361063392287836 -5.571664490909615 -15.615525863210086 3.224486508693466 -0.03624979017845729 0.0027214672485238404 -0.015172997538580289 -0.015436554503525634 4.6736522307372494 -0.011561047975289937 12.440585384406264 -8.274668008010067 6.9220663753578515 0.02922906601066596 46.398891445315655 0.027023145681884162 -4.313193609068533 -14.73908504577718 -3.8840362240187596 -0.006828163122979495 -0.03181363158756415 -0.03188778090191252 8.420652272914839e-05 -10.778164580931852 -0.03484656142784324 
